<svg width="427" height="138" viewBox="0 0 427 138" fill="none" xmlns="http://www.w3.org/2000/svg">
<path d="M24.3105 136H0.140625V4.42773H24.3105V87.3965L60.082 42.0449H87.6797L56.4785 81.2441L87.6797 136H60.082L41.0098 101.811L24.3105 123.959V136ZM185.15 88.0996C185.15 95.1309 183.891 101.693 181.371 107.787C178.852 113.822 175.424 119.066 171.088 123.52C166.752 127.914 161.654 131.4 155.795 133.979C149.994 136.498 143.754 137.758 137.074 137.758C130.453 137.758 124.213 136.498 118.354 133.979C112.553 131.4 107.455 127.914 103.061 123.52C98.7246 119.066 95.2969 113.822 92.7773 107.787C90.2578 101.693 88.998 95.1309 88.998 88.0996C88.998 80.9512 90.2578 74.3301 92.7773 68.2363C95.2969 62.1426 98.7246 56.8984 103.061 52.5039C107.455 48.0508 112.553 44.5645 118.354 42.0449C124.213 39.5254 130.453 38.2656 137.074 38.2656C143.754 38.2656 149.994 39.4668 155.795 41.8691C161.654 44.2129 166.752 47.582 171.088 51.9766C175.424 56.3125 178.852 61.5566 181.371 67.709C183.891 73.8027 185.15 80.5996 185.15 88.0996ZM160.98 88.0996C160.98 84.2324 160.336 80.7461 159.047 77.6406C157.816 74.4766 156.117 71.7812 153.949 69.5547C151.781 67.2695 149.232 65.541 146.303 64.3691C143.432 63.1387 140.355 62.5234 137.074 62.5234C133.793 62.5234 130.688 63.1387 127.758 64.3691C124.887 65.541 122.367 67.2695 120.199 69.5547C118.09 71.7812 116.42 74.4766 115.189 77.6406C113.959 80.7461 113.344 84.2324 113.344 88.0996C113.344 91.7324 113.959 95.1016 115.189 98.207C116.42 101.312 118.09 104.008 120.199 106.293C122.367 108.578 124.887 110.395 127.758 111.742C130.688 113.031 133.793 113.676 137.074 113.676C140.355 113.676 143.432 113.061 146.303 111.83C149.232 110.6 151.781 108.871 153.949 106.645C156.117 104.418 157.816 101.723 159.047 98.5586C160.336 95.3945 160.98 91.9082 160.98 88.0996ZM226.723 16.293C226.723 18.5195 226.283 20.5996 225.404 22.5332C224.584 24.4668 223.441 26.166 221.977 27.6309C220.512 29.0371 218.783 30.1797 216.791 31.0586C214.857 31.8789 212.777 32.2891 210.551 32.2891C208.324 32.2891 206.215 31.8789 204.223 31.0586C202.289 30.1797 200.59 29.0371 199.125 27.6309C197.719 26.166 196.576 24.4668 195.697 22.5332C194.877 20.5996 194.467 18.5195 194.467 16.293C194.467 14.125 194.877 12.0742 195.697 10.1406C196.576 8.14844 197.719 6.44922 199.125 5.04297C200.59 3.57812 202.289 2.43555 204.223 1.61523C206.215 0.736328 208.324 0.296875 210.551 0.296875C212.777 0.296875 214.857 0.736328 216.791 1.61523C218.783 2.43555 220.512 3.57812 221.977 5.04297C223.441 6.44922 224.584 8.14844 225.404 10.1406C226.283 12.0742 226.723 14.125 226.723 16.293ZM222.592 136H198.422V41.8691H222.592V136ZM331.928 88.0996C331.928 95.1309 330.668 101.693 328.148 107.787C325.629 113.822 322.201 119.066 317.865 123.52C313.529 127.914 308.432 131.4 302.572 133.979C296.771 136.498 290.531 137.758 283.852 137.758C277.23 137.758 270.99 136.498 265.131 133.979C259.33 131.4 254.232 127.914 249.838 123.52C245.502 119.066 242.074 113.822 239.555 107.787C237.035 101.693 235.775 95.1309 235.775 88.0996C235.775 80.9512 237.035 74.3301 239.555 68.2363C242.074 62.1426 245.502 56.8984 249.838 52.5039C254.232 48.0508 259.33 44.5645 265.131 42.0449C270.99 39.5254 277.23 38.2656 283.852 38.2656C290.531 38.2656 296.771 39.4668 302.572 41.8691C308.432 44.2129 313.529 47.582 317.865 51.9766C322.201 56.3125 325.629 61.5566 328.148 67.709C330.668 73.8027 331.928 80.5996 331.928 88.0996ZM307.758 88.0996C307.758 84.2324 307.113 80.7461 305.824 77.6406C304.594 74.4766 302.895 71.7812 300.727 69.5547C298.559 67.2695 296.01 65.541 293.08 64.3691C290.209 63.1387 287.133 62.5234 283.852 62.5234C280.57 62.5234 277.465 63.1387 274.535 64.3691C271.664 65.541 269.145 67.2695 266.977 69.5547C264.867 71.7812 263.197 74.4766 261.967 77.6406C260.736 80.7461 260.121 84.2324 260.121 88.0996C260.121 91.7324 260.736 95.1016 261.967 98.207C263.197 101.312 264.867 104.008 266.977 106.293C269.145 108.578 271.664 110.395 274.535 111.742C277.465 113.031 280.57 113.676 283.852 113.676C287.133 113.676 290.209 113.061 293.08 111.83C296.01 110.6 298.559 108.871 300.727 106.645C302.895 104.418 304.594 101.723 305.824 98.5586C307.113 95.3945 307.758 91.9082 307.758 88.0996ZM396.879 136H342.035V112.094H396.879C398.52 112.094 399.926 111.508 401.098 110.336C402.27 109.164 402.855 107.758 402.855 106.117C402.855 104.418 402.27 103.305 401.098 102.777C399.926 102.25 398.52 101.986 396.879 101.986H371.918C367.758 101.986 363.861 101.195 360.229 99.6133C356.596 98.0312 353.432 95.8926 350.736 93.1973C348.041 90.4434 345.902 87.25 344.32 83.6172C342.797 79.9844 342.035 76.0879 342.035 71.9277C342.035 67.7676 342.797 63.8711 344.32 60.2383C345.902 56.6055 348.041 53.4414 350.736 50.7461C353.432 48.0508 356.596 45.9414 360.229 44.418C363.861 42.8359 367.758 42.0449 371.918 42.0449H420.521V65.9512H371.918C370.277 65.9512 368.871 66.5371 367.699 67.709C366.527 68.8809 365.941 70.2871 365.941 71.9277C365.941 73.627 366.527 75.0918 367.699 76.3223C368.871 77.4941 370.277 78.0801 371.918 78.0801H396.879C400.98 78.0801 404.848 78.7832 408.48 80.1895C412.113 81.5371 415.277 83.4414 417.973 85.9023C420.668 88.3633 422.807 91.3223 424.389 94.7793C425.971 98.2363 426.762 102.016 426.762 106.117C426.762 110.277 425.971 114.174 424.389 117.807C422.807 121.381 420.668 124.545 417.973 127.299C415.277 129.994 412.113 132.133 408.48 133.715C404.848 135.238 400.98 136 396.879 136Z" fill="url(#paint0_linear)"/>
<defs>
<linearGradient id="paint0_linear" x1="-14.8667" y1="27.9999" x2="450.286" y2="40.9535" gradientUnits="userSpaceOnUse">
<stop stop-color="#FF0BAC"/>
<stop offset="1" stop-color="#2F12DC"/>
</linearGradient>
</defs>
</svg>
